<?xml version="1.0" standalone="no"?>
<!DOCTYPE svg PUBLIC "-//W3C//DTD SVG 20010904//EN"
 "http://www.w3.org/TR/2001/REC-SVG-20010904/DTD/svg10.dtd">
<svg version="1.0" xmlns="http://www.w3.org/2000/svg"
 width="1600.000000pt" height="1600.000000pt" viewBox="0 0 1600.000000 1600.000000"
 preserveAspectRatio="xMidYMid meet">

<g transform="translate(0.000000,1600.000000) scale(0.100000,-0.100000)"
fill="#000000" stroke="none">
<path d="M7350 15935 c-85 -21 -264 -117 -380 -204 -272 -204 -495 -484 -643
-807 -45 -99 -127 -330 -127 -359 0 -8 -26 -28 -57 -44 -154 -78 -346 -223
-503 -380 -410 -411 -736 -1054 -819 -1616 -55 -375 16 -878 187 -1315 253
-650 693 -1090 1232 -1233 154 -41 235 -51 415 -52 259 0 424 38 635 146 522
268 881 942 1007 1889 22 164 24 630 4 870 -52 627 -187 1082 -418 1403 -69
95 -215 237 -301 292 -50 32 -62 44 -57 60 18 68 57 305 70 429 34 330 8 679
-64 836 -26 55 -40 73 -68 88 -26 15 -42 14 -113 -3z"/>
<path d="M9811 15581 c-44 -44 -70 -126 -98 -308 -14 -88 -17 -184 -18 -512
l0 -404 -52 -18 c-159 -54 -346 -184 -461 -320 -314 -371 -486 -932 -532
-1733 -20 -361 -8 -585 50 -864 177 -865 630 -1503 1227 -1727 486 -183 1147
-93 1610 221 454 307 779 825 899 1429 78 394 46 766 -100 1178 -236 664 -695
1244 -1238 1568 l-82 48 -41 119 c-157 449 -539 970 -906 1234 -143 103 -218
129 -258 89z"/>
<path d="M3197 11116 c-145 -60 -310 -230 -433 -448 -119 -209 -215 -528 -254
-839 l-12 -97 -64 -77 c-260 -311 -416 -690 -491 -1190 -24 -167 -24 -586 1
-770 55 -410 167 -750 351 -1071 386 -676 981 -1102 1637 -1173 396 -44 686
48 931 293 82 82 119 129 337 426 83 113 135 171 250 279 298 279 401 395 485
546 90 160 145 392 145 608 0 206 -92 438 -298 752 -105 160 -623 893 -750
1060 -204 270 -408 472 -602 598 -241 155 -449 220 -744 230 l-68 2 -33 160
c-73 356 -158 618 -230 704 -33 39 -75 41 -158 7z"/>
<path d="M13753 10008 c-119 -93 -333 -439 -469 -761 -24 -57 -32 -68 -49 -64
-11 3 -72 19 -135 35 -174 46 -257 56 -460 56 -209 0 -293 -12 -480 -70 -389
-121 -748 -393 -1054 -799 -89 -118 -435 -614 -527 -755 -152 -234 -266 -466
-310 -630 -46 -172 -30 -409 41 -602 57 -157 128 -257 360 -508 112 -122 201
-231 292 -360 263 -370 411 -549 570 -690 343 -304 675 -413 1133 -370 404 38
700 172 960 434 275 277 429 587 599 1206 146 531 171 693 170 1070 0 210 -5
280 -23 400 -24 161 -56 296 -103 441 l-31 96 46 124 c58 156 83 254 102 397
50 377 -43 774 -254 1088 -106 159 -232 280 -303 290 -26 4 -42 -2 -75 -28z"/>
<path d="M7576 7029 c-748 -58 -1064 -381 -1496 -1529 -124 -330 -224 -499
-432 -731 -162 -182 -384 -358 -819 -649 -560 -376 -738 -519 -934 -754 -174
-209 -296 -475 -347 -755 -28 -159 -30 -461 -4 -606 83 -451 324 -905 675
-1268 230 -238 445 -399 702 -526 314 -156 613 -220 969 -208 303 11 576 52
908 137 103 26 284 73 402 103 377 97 626 119 885 78 138 -22 201 -38 530
-131 407 -115 618 -149 981 -157 358 -8 591 20 852 102 753 239 1257 869 1373
1715 7 52 13 176 13 275 0 148 -4 198 -22 282 -42 193 -119 369 -250 569 -157
239 -316 415 -854 944 -469 461 -650 673 -798 931 -86 150 -133 277 -201 542
-115 451 -223 711 -397 961 -282 403 -674 624 -1196 675 -124 12 -379 12 -540
0z"/>
</g>
</svg>
